<?xml version="1.0" encoding="UTF-8" standalone="no"?>
<!-- Created with Inkscape (http://www.inkscape.org/) -->

<svg
   xmlns:dc="http://purl.org/dc/elements/1.1/"
   xmlns:cc="http://creativecommons.org/ns#"
   xmlns:rdf="http://www.w3.org/1999/02/22-rdf-syntax-ns#"
   xmlns:svg="http://www.w3.org/2000/svg"
   xmlns="http://www.w3.org/2000/svg"
   xmlns:sodipodi="http://sodipodi.sourceforge.net/DTD/sodipodi-0.dtd"
   xmlns:inkscape="http://www.inkscape.org/namespaces/inkscape"
   width="84.953232mm"
   height="7.5324278mm"
   viewBox="0 0 84.953233 7.5324278"
   version="1.1"
   id="svg8"
   inkscape:version="0.92.4 5da689c313, 2019-01-14"
   sodipodi:docname="logo.svg">
  <defs
     id="defs2" />
  <sodipodi:namedview
     id="base"
     pagecolor="#ffffff"
     bordercolor="#666666"
     borderopacity="1.0"
     inkscape:pageopacity="0.0"
     inkscape:pageshadow="2"
     inkscape:zoom="3.6058962"
     inkscape:cx="160.07851"
     inkscape:cy="13.407162"
     inkscape:document-units="mm"
     inkscape:current-layer="layer1"
     showgrid="false"
     fit-margin-top="0"
     fit-margin-left="0"
     fit-margin-right="0"
     fit-margin-bottom="0"
     inkscape:window-width="1920"
     inkscape:window-height="968"
     inkscape:window-x="0"
     inkscape:window-y="34"
     inkscape:window-maximized="1" />
  <metadata
     id="metadata5">
    <rdf:RDF>
      <cc:Work
         rdf:about="">
        <dc:format>image/svg+xml</dc:format>
        <dc:type
           rdf:resource="http://purl.org/dc/dcmitype/StillImage" />
        <dc:title></dc:title>
      </cc:Work>
    </rdf:RDF>
  </metadata>
  <g
     inkscape:label="Camada 1"
     inkscape:groupmode="layer"
     id="layer1"
     transform="translate(283.43248,-118.80796)">
    <path
       style="font-style:normal;font-weight:normal;font-size:8.44545078px;line-height:125%;font-family:sans-serif;letter-spacing:0px;word-spacing:0px;fill:#de011e;fill-opacity:1;stroke:none;stroke-width:1.17845333px;stroke-linecap:butt;stroke-linejoin:miter;stroke-opacity:1"
       d="m -279.7286,120.79102 c 0.87053,-0.65069 1.35799,-2.18591 2.63404,-1.90026 1.52651,-0.46344 0.82394,1.30221 0.97497,2.21424 -0.11198,0.82482 0.0558,1.59252 0,2.67634 -0.50983,0.0638 0.35146,0.85245 -0.0295,1.69403 0.007,0.76961 0.0222,0.72424 -1.33315,0.70708 -0.77835,0.16465 -0.47616,-1.27208 -0.34613,-1.60564 -0.41261,-0.68465 0.25755,-2.91805 -0.36076,-2.69258 -0.71551,0.46457 -1.45023,2.22326 -2.19836,0.8952 -1.01491,-1.32708 -1.20449,-0.83711 -1.41816,-0.11755 0.0305,0.50277 0.29343,0.9741 0.23569,1.5992 -0.192,0.19174 -1.12656,-0.4275 -1.53199,0.10953 -0.0157,-0.0812 0.81828,0.91679 0.95749,0.11791 0.37338,-0.43955 0.1718,0.51881 0.5745,1.06888 0.46163,1.13536 -2.15263,0.59164 -1.78241,0.35998 0.28273,-0.076 -0.2378,-1.78015 -0.0295,-2.7381 0.0534,-1.1131 -0.0234,-1.65228 0.75125,-2.38816 -1.14264,0.40259 -0.67247,-0.94525 -0.63342,-1.2963 0.0916,-0.39705 0.20691,-0.26199 -0.1179,-0.54689 0.55236,0.0316 1.50766,-0.33251 2.04863,0.18786 0.39162,0.53173 1.07706,1.04553 1.60457,1.65533 z m -3.21129,-1.01642 c 0.53596,0.29841 -0.46804,-0.66937 0,0 z m 1.13426,6.11323 c -0.27213,-0.16012 -0.15297,0.48381 0,0 z m -0.14739,-0.70707 c -0.30465,0.10919 0.16832,0.44531 0,0 z m -0.0589,0.73652 c -0.24449,-0.36596 -0.6458,0.16379 0,0 z m -0.29462,-0.29459 c 0.30196,-0.28801 -0.17723,-0.44779 0,0 z m -0.0589,-0.55978 c -1.37303,0.81079 0.50092,0.0104 0,0 z m -0.58923,-0.51556 c -0.21177,0.33273 0.50887,0.16639 0,0 z m 0.16203,-3.2113 c -0.46994,0.49535 0.0537,0.56915 0,0 z m 0.0884,1.04589 c 0.0448,-0.39293 -0.5588,-0.16831 0,0 z m 0.0589,-2.56314 c 0.13203,0.51101 0.47303,5.4e-4 0,0 z m 0.0589,3.44697 c 0.34749,0.43633 0.53941,-0.0277 0,0 z m 0.45665,0.38301 c 0.26267,-0.23488 -0.3002,-0.29842 0,0 z m 2.10649,-2.99033 c -0.16378,0.34546 0.63932,0.15558 0,0 z m 0.22096,0.45665 c -0.3725,0.0483 -0.12333,0.30386 0,0 z m -0.94277,-1.09008 c -0.0808,-0.44704 -0.48511,-0.10235 0,0 z m -0.22095,-0.0295 c -0.34112,0.53037 0.27964,0.40983 0,0 z m -0.4272,-0.13256 c 0.18124,-0.41118 -0.49178,-0.40706 0,0 z m 0.0884,-0.26514 c 0.34185,0.35419 0.29821,-0.17978 0,0 z m 0.0736,1.62038 c 0.12245,0.43926 0.31912,-0.1207 0,0 z m 0.25041,0.0736 c 0.39313,0.0734 -0.0669,-0.32669 0,0 z m 0.14739,-0.82491 c 0.39629,0.0558 -0.0825,-0.33913 0,0 z m 0.35354,0.29461 c 0.23665,0.53049 0.47564,0.0599 0,0 z m 0.32407,1.13427 c 1.3577,-0.15977 -0.43961,-0.49122 0,0 z m 0.48611,-0.0589 c 0.61743,0.26919 0.22129,-0.4069 0,0 z m 2.09175,2.65153 c -0.33977,-0.20059 -0.0339,0.39168 0,0 z m -0.0441,-0.20624 c -0.30588,-0.10501 -0.0838,-0.0489 0,0 z m 0.10304,-1.66456 c 0.58881,-0.84116 -0.0122,0.28176 0,0 z m 0.16205,2.29798 c 0.4744,-0.009 -0.0708,-0.32901 0,0 z m 0.42718,1.11954 c 0.20102,-0.44533 -0.36835,-0.1235 0,0 z m 0.13256,-1.88553 c 0.54047,0.17895 0.23961,-0.52596 0,0 z m 0.0589,-2.18014 c 0.64595,0.0651 0.30914,-0.31768 0,0 z m 0.38301,-2.1065 c 0.18409,-0.39987 -0.32562,-0.55845 0,0 z m -0.0736,-0.91328 c -0.52796,0.48312 0.27645,0.32418 0,0 z m -0.17678,0.48611 c -0.28679,-0.19739 -0.16901,0.36297 0,0 z m -0.17676,3.52063 c -0.39639,-0.002 0.36343,0.52724 0,0 z m -0.0139,1.75295 c -0.54827,0.0722 0.45396,0.33583 0,0 z m -0.36826,-2.60734 c 0.50279,-0.33117 -0.2863,-0.36381 0,0 z m 0.0441,-1.38467 c -0.52318,0.12767 0.13884,0.54939 0,0 z m -0.45664,0.36827 c -0.3759,0.14268 0.0949,0.37926 0,0 z m -1.36995,0.60395 c -0.70383,0.277 1.45718,0.3104 0.55975,-0.47137 1.54063,1.07589 0.43645,-0.22503 -0.17302,-0.1915 -0.43593,-0.13901 -0.06,0.55394 -0.38668,0.66287 z m -0.41248,-0.57449 c 0.13623,0.5678 0.52346,-0.421 0,0 z m -0.30932,0.1179 c -0.77605,0.47928 0.66664,0.48887 0,0 z m 4.11422,4.52231 c 0.27327,0.6068 -0.0923,0.58793 0,0 z m 0,-6.86448 c 1.08025,0 2.1605,0 3.24075,0 -0.66438,0.54251 1.2553,-0.3469 2.05865,0 1.35,-0.37706 1.00318,0.66543 1.04952,1.69402 -0.58283,0.62604 -0.26466,-0.60459 -0.66288,-0.0589 0.0328,0.66244 -0.10478,-0.10026 -0.75312,0.26515 -0.70018,0.14285 -3.16798,-0.41804 -1.70707,0.58539 0.2066,0.59352 1.88379,1.01042 0.48525,1.90444 -1.20745,0.95809 -1.16817,1.38518 0.42916,1.14863 0.94768,0.12924 2.68121,-0.52745 2.20866,1.02197 0.32298,1.36149 -1.59328,0.48376 -2.38458,0.73098 -1.0883,0.0339 -1.61733,-0.0949 -2.54746,0 -0.95499,0.41457 -1.42099,-0.78577 -1.41688,-0.79544 -0.36746,-1.16523 1.09476,-2.06997 1.60564,-2.31273 -0.53955,0.0888 0.59505,-0.79733 -0.35354,-1.13426 -0.12505,-0.28095 -0.78276,-0.79986 -0.84149,-1.14898 -0.81383,0.17666 -0.24541,-1.42356 -0.41061,-1.90027 z m 5.99539,1.22265 c 0.0522,0.70539 0.44075,-0.12192 0,0 z m -0.64815,-0.73654 c -0.0174,0.59708 0.33713,0.0578 0,0 z m -0.0441,0.39773 c -0.72531,-0.37555 0.22026,0.84332 -0.0736,0.17302 l 0.0139,-0.0552 z m -0.63342,0.16203 c -0.46801,-0.58115 -0.23579,0.26567 0,0 z m -0.14739,0.11792 c -0.71832,0.0721 -0.1629,0.50153 0,0 z m -0.44191,-0.57452 c -0.0281,0.30413 0.41063,-0.0229 0,0 z m -0.16204,0.20624 c -0.0388,0.5157 0.68211,0.0943 0,0 z m -0.35353,0.41245 c -0.66977,-0.003 0.46695,0.48553 0,0 z m -0.35354,-0.79544 c -0.38029,0.50759 0.63219,0.18891 0,0 z m -0.0884,0.89856 c -0.45102,-0.0122 0.0415,0.42686 0,0 z m -2.32745,4.74328 c -0.18088,0.30078 0.36365,0.39459 0,0 z m 0.17678,0.63342 c 0.11116,-0.29432 -0.41258,-0.23697 0,0 z m 0.0441,-1.79716 c 0.0683,-0.70214 -0.49829,0.39343 0,0 z m 0.45664,-0.39771 c -0.85026,0.24505 0.20625,0.63837 0,0 z m -0.30932,2.01809 c 0.21237,0.54931 0.42957,0.10258 0,0 z m 0.4861,-0.30934 c 0.18601,-0.38062 -0.34585,-0.19704 0,0 z m 0.22096,0.13256 c -0.036,-1.06416 -0.10501,0.89298 0,0 z m 0.45666,-0.41245 c 0.50973,0.2649 0.0893,-0.47108 0,0 z m -0.0441,-1.91499 c 0.21599,0.16518 0.0877,-0.56253 0,0 z m 0.13256,0.5303 c -0.16465,0.26029 0.31673,0.45122 0,0 z m 1.64984,2.00336 c -0.326,0.40612 0.49862,0.19435 0,0 z m -0.69234,-0.0441 c 0.3168,-1.1796 -0.63705,-0.7548 0,0 z m -0.38301,-0.61869 c -0.22786,0.47608 0.43893,-0.12035 0,0 z m -0.3388,0.57449 c 0.16396,-1.14393 -0.69021,0.33366 0,0 z m 0.79546,-2.4011 c 0.0361,0.43476 0.51229,0.0255 0,0 z m -0.0441,0.26515 c -0.50246,0.29242 0.0649,0.41998 0,0 z m -0.45666,0.17678 c -0.41268,0.0881 -0.16674,0.54576 0,0 z m -0.30935,-1.20791 c -0.98492,-0.58486 0.0471,0.57342 0,0 z m -0.58924,-3.09344 c 0.13466,0.35451 0.55224,-0.12925 0,0 z m 0,4.74326 c -0.74521,-0.28904 0.57268,1.92959 0,0.36828 0.74119,-0.24114 0.3572,0.002 0,-0.36828 z m -0.53028,-4.83165 c -0.74915,0.63551 0.3252,1.27685 0,0 z m -0.35354,1.9739 c 0.56026,1.16366 0.43611,-0.56301 0,0 z m -0.85439,-1.62037 c -0.64639,-0.38591 0.13797,0.77856 0,0 z m 6.50866,2.29798 c 0.67342,-0.42 0.83767,-1.36641 0.36827,-0.91328 -0.8388,0.20057 -0.0918,-1.39375 -0.36827,-1.59277 0.73433,-0.64033 1.15388,0.0977 1.73363,-0.24859 0.99694,1.17242 1.84781,2.62405 2.78868,3.90365 -0.0157,-0.86872 0.0226,-2.4481 0,-2.87248 -0.61111,-1.40048 1.31928,-1.1647 1.84135,-0.86083 -0.0648,0.98492 0.12592,2.10656 -0.0884,3.0115 -0.62352,-0.73635 -0.45126,0.0909 -0.22095,0.73652 0.53229,-1.03308 0.16936,1.49523 0.30936,2.22529 0.1636,1.27717 -0.16152,1.18056 -1.21162,1.14804 -0.63891,-0.13378 -0.99209,-0.35875 -1.10111,-0.97222 -0.24795,0.33949 -0.87634,-1.1475 -1.32635,-1.56797 -0.40063,-0.79509 -1.24025,-1.83453 -0.91271,0.0581 0.0679,0.91446 -0.2248,1.44869 0,2.15157 -0.31216,1.02945 -1.35031,-0.43309 -1.23738,0.33051 -1.19444,0.19121 -0.29843,-1.70802 -0.57449,-2.4352 0.0299,-0.56045 -0.0205,-1.41756 0,-2.10185 z m 6.23108,-1.60563 c 0.17956,-0.28576 -0.35706,-0.18513 0,0 z m -0.0589,-0.4272 c -0.44711,0.19981 0.18279,0.31563 0,0 z m -5.77441,5.61239 c -0.26494,-0.77153 -0.56999,0.34128 0,0 z m 0.0736,-0.0295 c 0.52708,-0.64671 0.0739,-0.61806 0,0 z m 0.83964,0.26515 c 0.2943,-0.96189 -0.31045,-0.21553 0,0 z m 0.45665,-1.04588 c -0.79522,0.2047 -0.7558,0.97177 0,0 z m 1.66456,-0.72181 c 0.16902,-0.42224 -0.4247,0.0314 0,0 z m 2.46002,-2.96085 c -0.77806,0.0419 0.37504,0.72208 0,0 z m -1.31103,-1.28158 c -0.13621,0.67259 0.34103,0.006 0,0 z m -0.29461,5.39143 c -0.81691,0.47549 1.09029,1.10553 0.25042,0.41245 -0.36032,0.24594 -0.0823,-0.31493 -0.25042,-0.41245 z m -0.39773,-0.42719 c -0.16099,0.52034 0.5727,0.21068 0,0 z m -0.33882,-0.78072 c 0.34658,-0.003 -0.14022,-0.5133 0,0 z m -0.0441,-0.95749 c -0.71876,0.93671 0.37374,1.03303 0,0 z m -0.23569,0.42717 c -0.0984,-0.40155 -0.34136,0.0258 0,0 z m -0.10304,0.83964 c -0.37769,0.0422 0.2048,0.41468 0,0 z m -0.67761,-3.38804 c -0.15419,0.31474 0.74753,0.0318 0,0 z m -0.38299,-0.13256 c -0.16082,0.28967 0.41273,0.14093 0,0 z m -1.47306,0.17678 c 0.46244,1.38698 0.49089,-0.47456 1.41414,0.22095 -0.12715,-1.01703 -0.0708,0.78271 -0.83964,-0.83964 0.0549,0.22189 -0.0964,0.35178 -0.5745,0.61869 z m 0.0295,3.93308 c -0.0429,0.36389 0.45389,0.0284 0,0 z m -0.13256,-0.22096 c -0.39203,0.17076 0.29399,0.40309 0,0 z m -0.383,0.17677 c -0.0475,0.51379 0.6617,-0.0893 0,0 z m 13.10662,-3.6974 c -0.0637,1.505 0.0694,3.3269 -0.0295,4.90531 -0.31684,1.47009 -1.62999,-0.60172 -1.23736,0.35353 -0.82927,0.36394 -1.26729,-0.25326 -1.00463,-0.959 0.0528,0.0298 -0.82195,0.78566 -1.11726,0.63375 0.73529,0.24905 1.48896,0.18053 0.86976,0.45783 -1.16577,-0.003 -2.5717,0.003 -3.82995,0 0.0266,-1.21178 0.0139,-2.05347 0,-3.27021 0.64534,0.19078 -0.70226,-1.00149 0.44988,-1.77846 0.10814,-0.25756 -0.88249,-0.97239 -0.44988,-2.21635 1.44923,-0.0621 3.01391,-0.009 4.50757,-0.0267 0.61379,0.63343 1.22756,1.26684 1.84135,1.90027 z m -6.20163,-0.94276 c 0.91387,0.0922 -0.0157,-0.94913 0,0 z m 0,2.68098 c 0.46941,-0.12628 -0.0714,-0.3405 0,0 z m -0.0884,0.76599 c 0.65928,0.22238 -0.14181,-0.80756 0,0 z m 0.17676,0.44193 c 0.42903,-0.10989 -0.12575,-0.37344 0,0 z m 2.53368,-3.75632 c -0.0638,0.66323 0.39756,-0.10443 0,0 z m -1.36995,3.88889 c -0.0294,0.51369 0.55553,0.0191 0,0 z m -0.73654,-1.51726 c 0.5739,0.23378 0.16763,-0.25993 0,0 z m 0.25042,-3.01978 c 0.53331,0.0777 -0.0318,-0.34674 0,0 z m 0.30935,3.06397 c -0.49689,0.10084 -0.0298,0.27739 0,0 z m 0.22097,3.3144 c 1.60864,-1.39456 -1.42022,-0.43244 0,0 z m 0.76598,-0.85438 c 0.2075,-0.38381 -0.47306,-0.0486 0,0 z m 2.29799,-3.21129 c -0.46871,-1.18639 -1.68226,-0.81052 -2.6957,-0.85437 0.0122,1.27028 -0.0301,2.4137 0,3.63847 0.81735,-0.25153 2.69489,0.55712 2.6957,-0.51097 0,-0.75771 0,-1.51541 0,-2.27313 z m 0.29461,-0.41245 c -0.0261,-0.54683 -0.62446,-0.0384 0,0 z m 0.17677,-0.64815 c 0.35654,-0.0708 0.0811,-0.38715 0,0 z m 1.09007,0.72181 c 0.4198,-0.86753 0.0105,-0.76895 0,0 z m 0.83667,4.44865 c 0.27326,0.60679 -0.0922,0.58791 0,0 z m 0,-6.8645 c 1.08024,0 2.16048,0 3.24074,0 -0.66439,0.54253 1.25529,-0.34688 2.05864,0 1.35001,-0.37704 1.00321,0.66544 1.04953,1.69404 -0.58282,0.62603 -0.26467,-0.6046 -0.66289,-0.0589 0.0328,0.66246 -0.10478,-0.10025 -0.75312,0.26516 -0.70018,0.14285 -3.16797,-0.41803 -1.70705,0.5854 0.2066,0.59352 1.88378,1.01042 0.48524,1.90443 -1.20746,0.9581 -1.16817,1.38518 0.42917,1.14863 0.94768,0.12925 2.68119,-0.52745 2.20865,1.02197 0.32298,1.3615 -1.59328,0.48377 -2.38458,0.73099 -1.0883,0.0339 -1.61732,-0.0949 -2.54744,0 -0.95502,0.41456 -1.42101,-0.78577 -1.41689,-0.79546 -0.36748,-1.16521 1.09475,-2.06995 1.60562,-2.31271 -0.53955,0.0888 0.59507,-0.79734 -0.35352,-1.13427 -0.12506,-0.28096 -0.78278,-0.79986 -0.8415,-1.14898 -0.81383,0.17667 -0.24542,-1.42356 -0.4106,-1.90027 z m 5.99538,1.22267 c 0.0521,0.70539 0.44074,-0.12193 0,0 z m -0.64815,-0.73655 c -0.0174,0.59708 0.33712,0.0578 0,0 z m -0.0441,0.39773 c -0.72532,-0.37554 0.22026,0.84333 -0.0736,0.17303 l 0.0139,-0.0552 z m -0.63342,0.16204 c -0.46802,-0.58115 -0.23579,0.26566 0,0 z m -0.14738,0.1179 c -0.71832,0.0721 -0.16292,0.50154 0,0 z m -0.44191,-0.5745 c -0.0281,0.30412 0.41061,-0.0229 0,0 z m -0.16205,0.20623 c -0.0387,0.5157 0.68213,0.0943 0,0 z m -0.35353,0.41246 c -0.66976,-0.003 0.46696,0.48552 0,0 z m -0.35353,-0.79545 c -0.38029,0.5076 0.63219,0.18892 0,0 z m -0.0884,0.89857 c -0.451,-0.0122 0.0415,0.42686 0,0 z m -2.32745,4.74326 c -0.18087,0.30079 0.36366,0.39459 0,0 z m 0.17678,0.63343 c 0.11105,-0.29431 -0.41257,-0.23697 0,0 z m 0.0441,-1.79715 c 0.0683,-0.70215 -0.49829,0.39342 0,0 z m 0.45664,-0.39772 c -0.85026,0.24505 0.20624,0.63837 0,0 z m -0.30933,2.0181 c 0.21237,0.5493 0.42958,0.10257 0,0 z m 0.48611,-0.30934 c 0.18601,-0.38062 -0.34585,-0.19704 0,0 z m 0.22096,0.13256 c -0.036,-1.06416 -0.10502,0.89296 0,0 z m 0.45665,-0.41246 c 0.50974,0.2649 0.0894,-0.47107 0,0 z m -0.0441,-1.91498 c 0.21599,0.16518 0.0877,-0.56253 0,0 z m 0.13256,0.53029 c -0.16465,0.26028 0.31673,0.45123 0,0 z m 1.64984,2.00337 c -0.326,0.40612 0.49861,0.19433 0,0 z m -0.69234,-0.0441 c 0.3168,-1.17959 -0.63706,-0.75481 0,0 z m -0.38301,-0.61869 c -0.22787,0.47609 0.43893,-0.12035 0,0 z m -0.3388,0.5745 c 0.16396,-1.14393 -0.69021,0.33364 0,0 z m 0.79545,-2.4011 c 0.0361,0.43476 0.51229,0.0254 0,0 z m -0.0441,0.26515 c -0.50244,0.29242 0.0651,0.41997 0,0 z m -0.45664,0.17677 c -0.41268,0.0881 -0.16675,0.54577 0,0 z m -0.30935,-1.20792 c -0.98494,-0.58485 0.0471,0.57344 0,0 z m -0.58924,-3.09343 c 0.13466,0.35451 0.55223,-0.12924 0,0 z m 0,4.74327 c -0.74522,-0.28906 0.57268,1.92959 0,0.36827 0.74119,-0.24113 0.35721,0.001 0,-0.36827 z m -0.5303,-4.83167 c -0.74913,0.63553 0.32522,1.27686 0,0 z m -0.35352,1.97391 c 0.56025,1.16365 0.43609,-0.56301 0,0 z m -0.85439,-1.62037 c -0.64639,-0.38591 0.13796,0.77856 0,0 z m 6.50866,-0.45665 c 1.18979,-0.13169 2.25224,-0.13588 1.81187,1.36262 0,1.38713 0,2.77425 0,4.16139 1.06382,-0.32602 2.9688,0.50724 2.44529,0 0.92473,0.11325 2.58428,-0.50849 2.09175,1.02196 0.33087,1.37431 -1.58417,0.50267 -2.38456,0.74571 -1.06555,0.0928 -1.93389,-0.16622 -2.72239,0 -0.2458,-1.04138 -0.74968,-0.83375 -0.4907,-0.0139 -0.66184,0.36984 -1.08886,-0.82962 -0.5745,-1.03115 -0.36384,-0.78781 -0.0939,-2.3605 -0.17676,-3.49118 1.44977,-1.12662 -0.5147,-0.53228 0,-2.06138 0,-0.2311 0,-0.46217 0,-0.69326 z m 4.30135,7.04126 c -0.13343,0.40315 0.27104,0.0583 0,0 z m -3.68267,-1.56145 c -0.49549,0.0244 0.0916,0.53755 0,0 z m 0,0.48611 c -0.3022,-0.44821 -0.33705,0.0863 0,0 z m -0.17675,0.63343 c 0.30963,-0.85723 -0.74895,0.74626 0,0.27988 -0.0405,0.26811 0.2038,-0.18845 0,-0.27988 z m 1.11952,0.67761 c 0.40553,-0.15559 -0.11,-0.60991 0,0 z m 0.35354,-0.2357 c 0.29289,-0.47597 -0.49975,-0.0644 0,0 z m 0.58922,-0.39773 c -0.39918,-0.0603 -0.0746,0.41219 0,0 z m -0.35353,-0.30934 c -0.18869,0.36129 0.34696,0.16937 0,0 z m -0.32408,-0.27989 c -0.75484,-0.42229 0.35818,1.29693 0,0.20624 z m -0.70707,-0.83964 c -0.86814,0.71879 0.1006,0.85532 0,0.22098 0.15698,0.40856 0.90201,0.10466 0,-0.22098 z m -0.27989,0 c 0.35569,0.0157 -0.16064,-0.51414 0,0 z m 5.92219,1.64982 c 0.27328,0.6068 -0.0923,0.58793 0,0 z m 0,-6.86448 c 1.08025,0 2.16049,0 3.24076,0 -0.66439,0.54251 1.2553,-0.34689 2.05864,0 1.35,-0.37704 1.00321,0.66543 1.04953,1.69403 -0.58284,0.62603 -0.26467,-0.60459 -0.66289,-0.059 0.0328,0.66245 -0.10478,-0.10025 -0.75312,0.26515 -0.70018,0.14285 -3.16798,-0.41804 -1.70706,0.58539 0.2066,0.59352 1.88379,1.01043 0.48525,1.90444 -1.20746,0.9581 -1.16818,1.38519 0.42915,1.14864 0.94769,0.12924 2.68121,-0.52745 2.20867,1.02197 0.32297,1.36149 -1.59327,0.48375 -2.38459,0.73098 -1.0883,0.0339 -1.61732,-0.0949 -2.54744,0 -0.95501,0.41457 -1.42101,-0.78577 -1.4169,-0.79545 -0.36746,-1.16523 1.09476,-2.06997 1.60564,-2.31273 -0.53955,0.0888 0.59506,-0.79732 -0.35353,-1.13425 -0.12507,-0.28096 -0.78277,-0.79987 -0.84149,-1.14899 -0.81384,0.17667 -0.24542,-1.42355 -0.41062,-1.90026 z m 5.99539,1.22266 c 0.0522,0.70539 0.44075,-0.12192 0,0 z m -0.64815,-0.73655 c -0.0174,0.59708 0.33713,0.0578 0,0 z m -0.0441,0.39773 c -0.72532,-0.37554 0.22025,0.84333 -0.0736,0.17302 l 0.0139,-0.0553 z m -0.63342,0.16204 c -0.46802,-0.58116 -0.23579,0.26566 0,0 z m -0.14737,0.11791 c -0.71833,0.0721 -0.16292,0.50153 0,0 z m -0.44193,-0.57451 c -0.0281,0.30413 0.41063,-0.0229 0,0 z m -0.16203,0.20624 c -0.0387,0.51569 0.68213,0.0943 0,0 z m -0.35353,0.41245 c -0.66976,-0.003 0.46696,0.48552 0,0 z m -0.35354,-0.79545 c -0.3803,0.50761 0.63219,0.18892 0,0 z m -0.0884,0.89857 c -0.45101,-0.0122 0.0415,0.42686 0,0 z m -2.32744,4.74327 c -0.18087,0.30079 0.36365,0.39459 0,0 z m 0.17677,0.63343 c 0.11116,-0.29433 -0.41258,-0.23697 0,0 z m 0.0441,-1.79716 c 0.0683,-0.70214 -0.49828,0.39343 0,0 z m 0.45666,-0.39771 c -0.85027,0.24504 0.20623,0.63837 0,0 z m -0.30934,2.01809 c 0.21238,0.54931 0.42959,0.10257 0,0 z m 0.48612,-0.30934 c 0.18599,-0.38062 -0.34587,-0.19704 0,0 z m 0.22096,0.13256 c -0.036,-1.06417 -0.10502,0.89297 0,0 z m 0.45664,-0.41245 c 0.50973,0.26489 0.0893,-0.47108 0,0 z m -0.0441,-1.91499 c 0.21599,0.16517 0.0877,-0.56253 0,0 z m 0.13256,0.53029 c -0.16466,0.26029 0.31674,0.45123 0,0 z m 1.64983,2.00338 c -0.32599,0.40611 0.49862,0.19433 0,0 z m -0.69232,-0.0441 c 0.3168,-1.17959 -0.63706,-0.7548 0,0 z m -0.38302,-0.61869 c -0.22786,0.4761 0.43894,-0.12034 0,0 z m -0.33879,0.57449 c 0.16396,-1.14392 -0.69023,0.33366 0,0 z m 0.79545,-2.40109 c 0.0361,0.43476 0.51229,0.0255 0,0 z m -0.0441,0.26515 c -0.50245,0.29242 0.0651,0.41998 0,0 z m -0.45666,0.17678 c -0.41268,0.0881 -0.16674,0.54576 0,0 z m -0.30935,-1.20792 c -0.98492,-0.58485 0.0471,0.57343 0,0 z m -0.58921,-3.09343 c 0.13466,0.35451 0.55222,-0.12926 0,0 z m 0,4.74326 c -0.74523,-0.28905 0.57267,1.92959 0,0.36827 0.74117,-0.24113 0.3572,0.002 0,-0.36827 z m -0.53031,-4.83166 c -0.74913,0.63553 0.32522,1.27685 0,0 z m -0.35353,1.97391 c 0.56026,1.16365 0.4361,-0.56301 0,0 z m -0.85438,-1.62037 c -0.64639,-0.38591 0.13796,0.77856 0,0 z m 6.5381,6.40783 c 0.27329,0.6068 -0.0922,0.58792 0,0 z m 0,-6.86449 c 1.08025,0 2.16051,0 3.24076,0 -0.66437,0.54252 1.2553,-0.34689 2.05864,0 1.35001,-0.37705 1.0032,0.66544 1.04953,1.69404 -0.58284,0.62603 -0.26467,-0.60461 -0.66288,-0.059 0.0328,0.66246 -0.10478,-0.10025 -0.75311,0.26515 -0.70018,0.14285 -3.168,-0.41803 -1.70706,0.5854 0.2066,0.59352 1.88377,1.01043 0.48524,1.90443 -1.20747,0.95811 -1.16818,1.38519 0.42916,1.14864 0.94767,0.12925 2.68119,-0.52745 2.20865,1.02197 0.32298,1.3615 -1.59327,0.48376 -2.38458,0.73099 -1.08829,0.0339 -1.61731,-0.0949 -2.54745,0 -0.95499,0.41456 -1.42101,-0.78577 -1.4169,-0.79546 -0.36747,-1.16522 1.09476,-2.06996 1.60566,-2.31272 -0.53956,0.0888 0.59504,-0.79733 -0.35355,-1.13426 -0.12507,-0.28096 -0.78275,-0.79986 -0.8415,-1.14899 -0.81382,0.17668 -0.24541,-1.42355 -0.41061,-1.90026 z m 5.99539,1.22267 c 0.0521,0.70539 0.44076,-0.12193 0,0 z m -0.64815,-0.73655 c -0.0174,0.59707 0.33714,0.0577 0,0 z m -0.0441,0.39772 c -0.72532,-0.37554 0.22026,0.84334 -0.0736,0.17303 l 0.0139,-0.0553 z m -0.63342,0.16205 c -0.46801,-0.58116 -0.23579,0.26566 0,0 z m -0.14738,0.1179 c -0.7183,0.0721 -0.16291,0.50154 0,0 z m -0.44191,-0.5745 c -0.0281,0.30411 0.41063,-0.0229 0,0 z m -0.16205,0.20623 c -0.0387,0.51569 0.68214,0.0943 0,0 z m -0.35352,0.41246 c -0.66977,-0.003 0.46697,0.48551 0,0 z m -0.35354,-0.79545 c -0.38027,0.5076 0.63219,0.18892 0,0 z m -0.0884,0.89857 c -0.45102,-0.0122 0.0413,0.42686 0,0 z m -2.32745,4.74326 c -0.18089,0.30078 0.36365,0.39459 0,0 z m 0.17677,0.63342 c 0.11116,-0.29431 -0.41259,-0.23696 0,0 z m 0.0441,-1.79714 c 0.0684,-0.70216 -0.49831,0.39342 0,0 z m 0.45665,-0.39771 c -0.85028,0.24504 0.20622,0.63835 0,0 z m -0.30935,2.01808 c 0.21237,0.5493 0.42957,0.10258 0,0 z m 0.48611,-0.30933 c 0.18602,-0.38062 -0.34585,-0.19704 0,0 z m 0.22095,0.13255 c -0.036,-1.06416 -0.10501,0.89297 0,0 z m 0.45666,-0.41245 c 0.50973,0.26489 0.0893,-0.47107 0,0 z m -0.0441,-1.91498 c 0.21596,0.16517 0.0877,-0.56253 0,0 z m 0.13255,0.53029 c -0.16482,0.26028 0.31673,0.45123 0,0 z m 1.64984,2.00336 c -0.32601,0.40613 0.49859,0.19434 0,0 z m -0.69235,-0.0441 c 0.31681,-1.17959 -0.63704,-0.75481 0,0 z m -0.38299,-0.61869 c -0.22789,0.47608 0.43892,-0.12035 0,0 z m -0.33882,0.57449 c 0.16396,-1.14392 -0.69022,0.33365 0,0 z m 0.79547,-2.4011 c 0.0363,0.43477 0.51228,0.0254 0,0 z m -0.0441,0.26516 c -0.50245,0.29242 0.0651,0.41996 0,0 z m -0.45666,0.17678 c -0.41268,0.0881 -0.16674,0.54576 0,0 z m -0.30934,-1.20793 c -0.98492,-0.58486 0.0471,0.57343 0,0 z m -0.58922,-3.09344 c 0.13465,0.35451 0.55222,-0.12924 0,0 z m 0,4.74328 c -0.74522,-0.28906 0.57268,1.92958 0,0.36827 0.74116,-0.24113 0.3572,0.002 0,-0.36827 z m -0.53031,-4.83167 c -0.74915,0.63552 0.3252,1.27685 0,0 z m -0.35354,1.97391 c 0.56026,1.16365 0.43611,-0.56302 0,0 z m -0.85437,-1.62038 c -0.64638,-0.3859 0.13797,0.77857 0,0 z m 12.71026,-0.36825 c -0.31185,-0.10396 0.18745,-0.16361 0,0 z m -0.6334,-0.0884 c -0.39049,0 -0.12018,0 0,0 z m -1.53201,7.29168 c -0.72868,-0.13534 -1.4864,0.20875 -1.99327,-0.16307 -0.59433,-1.27116 -0.39171,-1.75619 0.53494,-1.73709 -0.0672,0.23086 -1.69529,-0.17425 -1.17846,-0.83964 -0.0721,-0.17637 -0.44265,-0.80452 -0.63341,-1.84133 0.30277,-0.0157 -0.53698,-0.96014 -0.55882,-1.76529 -0.96277,-1.26455 1.05012,-1.10804 1.58996,-0.75366 -0.0157,0.40336 0.62733,1.65547 0.78675,2.46227 0.34903,1.36828 0.44961,1.61511 1.0104,0.26289 0.36492,-0.3467 0.42299,-0.14146 0.11093,-0.78088 0.45709,-0.78729 0.20824,-2.54213 1.53618,-2.13579 0.096,0.84775 1.29648,-0.54698 0.77252,0.71137 -0.2415,1.37323 -0.66586,1.19859 -0.60725,2.06132 -0.60342,0.89347 -0.23955,0.80539 -0.62579,2.05114 -0.28671,1.08843 -0.58616,1.57832 -0.74464,2.46785 z m -3.84469,-7.05598 c 0.17093,-0.43941 -0.32186,-0.11949 0,0 z m 0.0295,0.26515 c 0.42093,0.62654 0.52124,0.0475 0,0 z m 0.58923,0 c 0.6901,-0.33272 -0.36828,-0.41587 0,0 z m 0.26514,3.0198 c 0.24584,-0.20534 -0.35039,-0.317 0,0 z m 3.35861,0.55974 c -0.65186,0.26109 0.27185,0.35803 0,0 z m -1.62038,0.17678 c -0.30684,0.37076 0.63668,0.316 0,0 z m -0.13256,-0.60395 c -0.60571,-0.54206 -0.0157,0.51846 0,0 z m -1.23737,-3.28494 c -0.21824,0.37522 0.54649,0.41314 0,0 z m -0.0441,1.47307 c -0.2651,1.00036 1.10103,0.067 0.38301,0.3388 -0.16605,0.24289 -0.26233,-0.33845 -0.38301,-0.3388 z m 0.92804,2.68097 c 0.0586,-0.47162 -0.51653,-0.40038 0,0 z m -0.35354,-0.61869 c 0.42591,0.46492 0.43587,-0.27102 0,0 z m 0.35354,-1.11953 c 0.59733,-0.22388 -0.84057,-0.1528 -0.75127,0.0884 -0.10269,0.61328 0.30058,0.45685 0.75127,0.45665 0.16413,-0.23878 -0.73749,-0.39219 0,-0.54505 z m 0.0884,1.79715 c 0.43684,0.22556 0.31887,-0.49064 0,0 z m 0.17678,1.51725 c -0.42062,-1.24564 -0.24775,0.83044 0,0 z m 0.0441,-0.63341 c 0.32756,0.3144 0.22263,-0.24459 0,0 z m 0.13256,1.44361 c 0.45941,0.12802 -0.042,-0.31897 0,0 z m 0.26516,0.17676 c 0.1732,-0.25909 -0.36491,0.38952 0,0 z m 0.36827,-2.78409 c 0.22517,0.4626 0.61192,0.14198 0,0 z m 0.32406,1.35522 c 0.7231,0.45241 1.09723,-1.29994 0,0 z m 0.22097,0.35354 c 0.0212,0.90856 0.43461,-0.41232 0,0 z m 2.78593,1.28155 c -0.85895,-1.23938 1.41322,-1.65189 1.20791,-0.72178 0.91096,0.64516 -0.13988,0.13429 0.27991,-0.38301 0.67501,-0.0225 0.19568,1.79777 -1.09747,1.10479 -0.13012,0 -0.26023,0 -0.39035,0 z m 8.07472,-7.14437 c 0.8057,-0.80266 0.86076,1.87124 0.23384,1.75296 -1.3988,0 -2.7976,0 -4.19641,0 0,1.21283 0,2.42564 0,3.63846 0.9777,0.55855 0.66957,-0.0441 1.91041,0 1.02584,-0.0212 1.40482,0.18913 2.16355,0 0.88368,-0.21081 0.30427,1.10151 0.4631,1.46665 -0.50074,0.64467 -0.45071,-0.0346 -0.16204,-0.0672 -0.45587,0.47201 -1.59093,0.34127 -2.66166,0.35354 -0.79257,-0.29386 -0.5414,0.0711 -1.71059,0 -1.01884,-0.1718 -2.12033,0.48467 -1.81464,-0.85163 -0.0872,-1.20701 0.25589,-1.30293 0,-1.83948 -0.2585,-0.98795 0.25923,-2.32242 0.58095,-2.7003 -1.0995,0.0833 -0.34195,-1.01177 -0.58095,-1.89294 0.9044,-0.0848 1.36446,0.1174 1.93986,-0.007 1.26836,0 2.53673,0 3.80512,0 z m -0.70708,6.51096 c -0.91554,0.53377 1.38398,0.14669 0,0 z m -4.83166,-5.86281 c 0.037,-0.45068 -0.39851,-0.0967 0,0 z m 0.0441,0.22097 c 0.21875,0.88741 0.6984,0.49744 0,0 z m 0.42718,0.20623 c 0.17533,0.605 0.30894,-0.22035 0,0 z m 0.11791,4.78747 c -0.0548,-0.44977 -0.40585,-0.12646 0,0 z m -0.51557,-3.15237 c 0.0686,0.37883 0.4697,-0.16675 0,0 z m 0.23568,3.97728 c 0.48438,-1.02349 -0.639,0.52139 0.0441,-0.45666 v 0.20624 z m 0.17677,0.23569 c 0.38487,-0.43117 -0.0281,-0.44595 0,0 z m 0.44192,-1.01643 c 0.25323,-0.85974 -0.80843,-0.2621 0,0 z m -0.20622,-4.83164 c 0.90404,0.10292 -0.13832,-0.89795 0,0 z m 0.60395,-0.33881 c -0.38509,-0.0609 0.089,0.35707 0,0 z m 0.19149,6.06904 c -0.42578,0.41395 0.27854,0.2209 0,0 z m 0.58923,-6.58461 c 0.28255,-0.31721 -0.43411,-0.20015 0,0 z m 0.55977,0.64815 c 0.59907,-0.27987 -0.14459,-0.68121 0,0 z m 0.98695,0.0736 c 0.0562,-0.59041 -0.5128,0.13936 0,0 z m 0.44191,0.0884 c 0.66472,-0.79149 -0.80427,-0.14843 0,0 z m 0.7071,-1.11952 c -0.0656,0.41061 0.32302,0.14216 0,0 z m 1.13425,1.11952 c -0.40821,0.009 0.0677,0.4013 0,0 z m -1.03116,0.0884 c 1.587,0.12053 0.0409,-0.67648 0,0 z m 4.32783,-0.8691 c -0.92379,-0.85371 1.0318,-0.2455 0,0 z m 3.77106,6.89395 c -0.45901,0.003 -2.93249,0.007 -2.07703,-0.0295 -0.19684,-0.44985 -1.68545,0.3186 -2.52818,0.0295 -1.1892,0.14896 -2.19232,0.11163 -1.75845,-1.36261 0.16064,-0.87781 1.92204,-0.15506 2.72523,-0.39035 1.73998,0.32168 0.45647,-0.57734 -0.16204,-1.20789 -0.40422,-0.64018 -0.13204,-0.44671 -0.78072,-0.72181 0.18591,-0.0139 -0.95153,-0.71523 -1.19318,-1.20793 -0.46641,-0.26702 0.76806,-0.65545 0.1179,-0.73652 -0.0191,0.22775 -0.18477,0.001 -0.26514,0.23569 -0.83134,0.23487 -0.38427,-1.71873 -0.33881,-1.82661 0.9352,-0.26852 1.87794,-0.0464 1.97391,0.61869 -0.30412,0.39277 0.18855,0.70298 0.82492,0.66289 -0.24338,-0.25419 -0.17215,-0.86049 0.25043,-1.13426 0.3398,-0.39561 1.75807,-0.1589 2.67274,-0.22098 1.1321,-0.0844 0.13047,1.20913 0.53854,1.70417 -0.55931,0.47123 -2.0055,0.0557 -2.89555,0.1961 -2.01064,-0.36443 0.49767,0.9528 0.33241,1.35522 -1.10082,-0.0104 1.18509,0.28436 1.48619,1.23098 1.0312,0.6355 1.2424,1.61622 1.07695,2.75555 z m -2.40111,-5.64184 c 0.11093,0.0557 0.16274,-0.0122 0,0 z m 1.94446,-0.35355 c -0.0451,0.57069 0.37233,-0.25798 0,0 z m -0.30935,0.0441 c 0.006,-0.34221 -0.39548,0.11948 0,0 z m -1.41414,-1.2963 c -0.297,0.54109 0.67538,-0.13849 0,0 z m -0.0295,1.01642 c -0.62241,1.12223 1.24305,-0.65305 0.72181,-0.30935 -0.44094,-0.11722 -0.27125,0.71422 -0.72181,0.30935 z m -0.42719,0.44191 c -0.53431,-0.0483 0.0932,0.39194 0,0 z m -0.2357,0.16204 c 0.15768,0.0569 -0.0371,-0.0919 0,0 z m -0.72179,0.0295 c 0.0507,0.0652 0.13517,-0.0339 0,0 z m -1.84133,-1.03114 v 0.0295 z m -0.72181,-0.11792 c 0.91709,0.40508 -0.56544,-0.80013 0,0 z m 0.27988,0.23568 c 0.50616,0.131 0.029,-0.60497 0,0 z m 0.17678,0.39774 c 0.38162,-0.0211 -0.007,-0.47979 0,0 z m 0.19149,-0.10304 c -0.21354,0.67503 0.3368,0.69359 0,0 z m 0.66288,0.11791 c -0.17251,0.55592 0.55935,0.0204 0,0 z m -0.11792,-0.766 h 0.0139 z m -0.10304,0.10304 c 0.45444,0.24904 -0.2159,-0.49664 0,0 z m -0.17675,0.23569 v -0.0295 z m 0.27987,0.39773 c -0.65437,0.31136 0.0599,0.76784 0,0 z m 0.11792,1.23736 c 1.18876,0.14547 -0.90008,0.11406 0,0 z m 0.89858,1.07534 c -0.24165,-0.43787 -0.4146,0.47199 0,0 z m -0.0441,-1.95916 c -0.15349,0.3877 0.51027,0.13273 0,0 z m 1.41414,2.843 c 0.48231,0.48118 0.0307,-0.68663 0,0 z m 0.10304,1.09008 -0.0139,0.0295 z m -2.50422,0.89856 h -0.0736 z m 0.26515,-0.0441 c 0.42627,0.009 -0.19247,-0.53661 0,0 z m 0.50086,0.13256 c 0.39119,-0.39617 -0.20015,-0.29699 0,0 z m 1.16372,-0.35354 c -0.27831,-0.41687 -1.25988,0.0696 -0.0736,0.0736 z m 0.30934,-0.27989 c 0.4829,0.36402 0.018,-0.48057 0,0 z m 0.22095,1.03114 c 0.63914,0.19818 0.1718,-0.43018 0,0 z m 0.67762,-0.0441 c 0.55153,0.0645 -0.0933,-0.42506 0,0 z m -0.50084,-0.57451 c 1.61695,0.71836 0.23271,-0.88493 0.0295,-0.0295 z m 1.28155,0.69235 c 0.3299,0.31043 0.26129,-0.3509 0,0 z m 0.5156,-0.35353 c -0.18219,-0.33176 -1.1682,-0.0578 -0.17678,0.13255 -0.0292,0.61 0.009,-0.49327 0.17678,-0.13255 z m -0.13256,-0.75128 c 0.40298,-0.47491 -0.57172,-0.40535 0,0 z m 0.30934,1.01643 c 0.56389,0.47327 0.20234,-0.83982 0,0 z m 0.35353,-0.4714 c -0.0505,-0.35808 -0.40843,0.009 0,0 z m 3.11991,-5.95117 c -0.92379,-0.85371 1.03181,-0.24551 0,0 z m 3.77105,6.89394 c -0.459,0.003 -2.93249,0.007 -2.07702,-0.0295 -0.19685,-0.44985 -1.68545,0.31859 -2.52819,0.0295 -1.1892,0.14895 -2.19232,0.11162 -1.75845,-1.36262 0.16065,-0.87781 1.92205,-0.15506 2.72523,-0.39033 1.73998,0.32166 0.45649,-0.57736 -0.16203,-1.2079 -0.40422,-0.64018 -0.13204,-0.44672 -0.78073,-0.72181 0.18592,-0.0139 -0.95151,-0.71523 -1.19318,-1.20792 -0.46641,-0.26702 0.76806,-0.65546 0.11791,-0.73654 -0.0191,0.22777 -0.18478,0.001 -0.26514,0.23571 -0.83134,0.23485 -0.38428,-1.71873 -0.33881,-1.82661 0.93519,-0.26853 1.87794,-0.0464 1.9739,0.61869 -0.30411,0.39276 0.18856,0.70297 0.82493,0.66289 -0.24338,-0.25419 -0.17215,-0.8605 0.25042,-1.13427 0.33981,-0.3956 1.75808,-0.1589 2.67275,-0.22097 1.1321,-0.0845 0.13046,1.20912 0.53854,1.70417 -0.55932,0.47123 -2.0055,0.0557 -2.89556,0.1961 -2.01064,-0.36444 0.49767,0.95279 0.33242,1.35521 -1.10083,-0.0104 1.18509,0.28437 1.48619,1.23098 1.0312,0.63551 1.24241,1.61623 1.07695,2.75554 z m -2.40109,-5.64183 c 0.11093,0.0557 0.16272,-0.0122 0,0 z m 1.94445,-0.35356 c -0.0451,0.5707 0.37233,-0.25798 0,0 z m -0.30936,0.0441 c 0.006,-0.34222 -0.39546,0.11947 0,0 z m -1.41414,-1.2963 c -0.297,0.54109 0.6754,-0.1385 0,0 z m -0.0295,1.01643 c -0.62242,1.12222 1.24304,-0.65306 0.72181,-0.30937 -0.44095,-0.1172 -0.27125,0.71423 -0.72181,0.30937 z m -0.4272,0.44191 c -0.53431,-0.0483 0.0932,0.39194 0,0 z m -0.23569,0.16203 c 0.15767,0.0569 -0.0371,-0.0919 0,0 z m -0.7218,0.0295 c 0.0507,0.0652 0.13518,-0.0339 0,0 z m -1.84133,-1.03115 v 0.0295 z m -0.72181,-0.1179 c 0.9171,0.40507 -0.56543,-0.80015 0,0 z m 0.27988,0.23568 c 0.50616,0.13099 0.029,-0.60499 0,0 z m 0.17678,0.39773 c 0.38162,-0.0211 -0.007,-0.47978 0,0 z m 0.19149,-0.10304 c -0.21354,0.67503 0.33679,0.69358 0,0 z m 0.66288,0.11791 c -0.1725,0.55591 0.55935,0.0204 0,0 z m -0.11791,-0.76601 h 0.0139 z m -0.10304,0.10304 c 0.45443,0.24906 -0.21592,-0.49663 0,0 z m -0.17675,0.2357 v -0.0295 z m 0.27987,0.39772 c -0.65438,0.31137 0.0599,0.76785 0,0 z m 0.11791,1.23737 c 1.18877,0.14546 -0.90007,0.11406 0,0 z m 0.89858,1.07535 c -0.24164,-0.43787 -0.4146,0.47197 0,0 z m -0.0441,-1.95918 c -0.15365,0.38771 0.51028,0.13273 0,0 z m 1.41415,2.84302 c 0.4823,0.48118 0.0307,-0.68665 0,0 z m 0.10304,1.09006 -0.0139,0.0295 z m -2.50422,0.89857 h -0.0736 z m 0.26516,-0.0441 c 0.42627,0.009 -0.19247,-0.5366 0,0 z m 0.50085,0.13256 c 0.39119,-0.39615 -0.20015,-0.29698 0,0 z m 1.16372,-0.35354 c -0.2783,-0.41685 -1.25988,0.0696 -0.0736,0.0736 z m 0.30934,-0.27988 c 0.4829,0.36401 0.018,-0.48056 0,0 z m 0.22095,1.03114 c 0.63914,0.19818 0.17181,-0.43017 0,0 z m 0.67764,-0.0441 c 0.55151,0.0645 -0.0933,-0.42507 0,0 z m -0.50086,-0.57451 c 1.61695,0.71835 0.23271,-0.88492 0.0295,-0.0295 z m 1.28157,0.69235 c 0.3299,0.31044 0.26127,-0.35091 0,0 z m 0.51559,-0.35354 c -0.18219,-0.33175 -1.16821,-0.0577 -0.17678,0.13256 -0.0292,0.61001 0.009,-0.49328 0.17678,-0.13256 z m -0.13257,-0.75126 c 0.40299,-0.47492 -0.57172,-0.40536 0,0 z m 0.30934,1.01641 c 0.56391,0.47329 0.20235,-0.83982 0,0 z m 0.35353,-0.47138 c -0.0504,-0.35809 -0.40842,0.009 0,0 z"
       id="text12"
       inkscape:connector-curvature="0" />
  </g>
</svg>
