<?xml version="1.0" encoding="UTF-8" standalone="no"?>
<!-- Created with Inkscape (http://www.inkscape.org/) -->

<svg
   xmlns:dc="http://purl.org/dc/elements/1.1/"
   xmlns:cc="http://creativecommons.org/ns#"
   xmlns:rdf="http://www.w3.org/1999/02/22-rdf-syntax-ns#"
   xmlns:svg="http://www.w3.org/2000/svg"
   xmlns="http://www.w3.org/2000/svg"
   xmlns:sodipodi="http://sodipodi.sourceforge.net/DTD/sodipodi-0.dtd"
   xmlns:inkscape="http://www.inkscape.org/namespaces/inkscape"
   width="77.409813mm"
   height="7.1628699mm"
   viewBox="0 0 77.409814 7.1628699"
   version="1.1"
   id="svg8"
   inkscape:version="0.92.4 5da689c313, 2019-01-14"
   sodipodi:docname="logo-alt.svg">
  <defs
     id="defs2" />
  <sodipodi:namedview
     id="base"
     pagecolor="#ffffff"
     bordercolor="#666666"
     borderopacity="1.0"
     inkscape:pageopacity="0.0"
     inkscape:pageshadow="2"
     inkscape:zoom="5.5563996"
     inkscape:cx="150.30259"
     inkscape:cy="5.8925224"
     inkscape:document-units="mm"
     inkscape:current-layer="layer1"
     showgrid="false"
     fit-margin-top="0"
     fit-margin-left="0"
     fit-margin-right="0"
     fit-margin-bottom="0"
     inkscape:window-width="1920"
     inkscape:window-height="968"
     inkscape:window-x="0"
     inkscape:window-y="34"
     inkscape:window-maximized="1" />
  <metadata
     id="metadata5">
    <rdf:RDF>
      <cc:Work
         rdf:about="">
        <dc:format>image/svg+xml</dc:format>
        <dc:type
           rdf:resource="http://purl.org/dc/dcmitype/StillImage" />
        <dc:title />
      </cc:Work>
    </rdf:RDF>
  </metadata>
  <g
     inkscape:label="Camada 1"
     inkscape:groupmode="layer"
     id="layer1"
     transform="translate(283.1798,-119.06442)">
    <g
       aria-label="MENDELEEV.CSS"
       style="font-style:normal;font-weight:normal;font-size:10.8693018px;line-height:125%;font-family:sans-serif;letter-spacing:0px;word-spacing:0px;fill:#de011e;fill-opacity:1;stroke:none;stroke-width:0.86954415px;stroke-linecap:butt;stroke-linejoin:miter;stroke-opacity:1"
       id="text993">
      <path
         id="path1019"
         style="font-style:normal;font-variant:normal;font-weight:normal;font-stretch:normal;font-family:'Soviet Expanded';-inkscape-font-specification:'Soviet Expanded, ';fill:#de011e;fill-opacity:1;stroke-width:0.86954415px"
         d="m -279.10381,119.06442 q 0.34781,0 0.57607,0.17391 0.23912,0.17391 0.23912,0.41304 v 6.4781 h -1.63039 v -3.53252 l -0.8152,0.58694 -0.8152,-0.58694 v 3.53252 h -1.63039 v -6.4781 q 0,-0.23913 0.23912,-0.41304 0.23913,-0.17391 0.57608,-0.17391 h 0.81519 l 0.8152,2.35864 0.8152,-2.35864 z m 7.05655,2.35864 h -1.63039 v -1.17388 h -1.6304 v 1.82604 h 1.46736 v 1.04345 h -1.46736 v 1.82605 h 1.6304 v -1.17389 h 1.63039 v 1.7717 q 0,0.24999 -0.23912,0.4239 -0.22826,0.16304 -0.57608,0.16304 h -3.26079 q -0.33695,0 -0.57607,-0.16304 -0.23913,-0.17391 -0.23913,-0.4239 v -5.89116 q 0,-0.23913 0.23913,-0.41304 0.23912,-0.17391 0.57607,-0.17391 h 3.26079 q 0.34782,0 0.57608,0.17391 0.23912,0.17391 0.23912,0.41304 z m 2.16537,-2.35864 q -0.33695,0 -0.57607,0.17391 -0.23913,0.17391 -0.23913,0.41304 v 6.4781 h 1.663 l 1.59779,-3.53252 v 3.53252 h 1.6304 v -6.4781 q 0,-0.23913 -0.23913,-0.41304 -0.22825,-0.17391 -0.57607,-0.17391 h -0.8152 l -1.65213,4.17382 v -4.17382 z m 7.05655,1.18476 v 4.69554 h 1.6304 v -4.69554 z m 2.06517,-1.18476 q 0.61955,0.1087 0.8152,0.27174 0.19565,0.19564 0.35869,0.65216 v 5.239 q -0.22826,0.48912 -0.41304,0.60868 -0.18477,0.13043 -0.83693,0.29347 h -3.61948 v -7.06505 z m 7.43698,2.35864 h -1.63039 v -1.17388 h -1.6304 v 1.82604 h 1.46736 v 1.04345 h -1.46736 v 1.82605 h 1.6304 v -1.17389 h 1.63039 v 1.7717 q 0,0.24999 -0.23912,0.4239 -0.22826,0.16304 -0.57608,0.16304 h -3.26079 q -0.33695,0 -0.57607,-0.16304 -0.23912,-0.17391 -0.23912,-0.4239 v -5.89116 q 0,-0.23913 0.23912,-0.41304 0.23912,-0.17391 0.57607,-0.17391 h 3.26079 q 0.34782,0 0.57608,0.17391 0.23912,0.17391 0.23912,0.41304 z m 4.61096,2.34777 h 1.6304 v 2.35864 h -4.89119 v -7.06505 h 1.6304 v 5.8803 h 1.63039 z m 7.87176,-2.34777 h -1.6304 v -1.17388 h -1.63039 v 1.82604 h 1.46735 v 1.04345 h -1.46735 v 1.82605 h 1.63039 v -1.17389 h 1.6304 v 1.7717 q 0,0.24999 -0.23913,0.4239 -0.22825,0.16304 -0.57607,0.16304 h -3.26079 q -0.33695,0 -0.57607,-0.16304 -0.23913,-0.17391 -0.23913,-0.4239 v -5.89116 q 0,-0.23913 0.23913,-0.41304 0.23912,-0.17391 0.57607,-0.17391 h 3.26079 q 0.34782,0 0.57607,0.17391 0.23913,0.17391 0.23913,0.41304 z m 6.24135,0 h -1.63039 v -1.17388 h -1.6304 v 1.82604 h 1.46736 v 1.04345 h -1.46736 v 1.82605 h 1.6304 v -1.17389 h 1.63039 v 1.7717 q 0,0.24999 -0.23912,0.4239 -0.22826,0.16304 -0.57607,0.16304 h -3.2608 q -0.33694,0 -0.57607,-0.16304 -0.23912,-0.17391 -0.23912,-0.4239 v -5.89116 q 0,-0.23913 0.23912,-0.41304 0.23913,-0.17391 0.57607,-0.17391 h 3.2608 q 0.34781,0 0.57607,0.17391 0.23912,0.17391 0.23912,0.41304 z m 1.35017,-2.35864 h 1.6304 l 0.8152,4.70641 0.81519,-4.70641 h 1.6304 l -1.6304,7.06505 h -1.63039 z m 6.24136,5.30422 h 2.31516 v 1.85865 h -2.31516 z m 8.75488,-2.94558 h -1.63039 v -1.17388 h -1.6304 v 4.69554 h 1.6304 v -1.17389 h 1.63039 v 1.7717 q 0,0.24999 -0.23912,0.4239 -0.22826,0.16304 -0.57608,0.16304 h -3.26079 q -0.33694,0 -0.57607,-0.16304 -0.23912,-0.17391 -0.23912,-0.4239 v -5.89116 q 0,-0.23913 0.23912,-0.41304 0.23913,-0.17391 0.57607,-0.17391 h 3.26079 q 0.34782,0 0.57608,0.17391 0.23912,0.17391 0.23912,0.41304 z m 1.35018,-2.35864 v 1.18476 l 3.26079,4.69554 h -1.6304 v -1.17389 h -1.63039 v 2.35864 h 4.89118 v -1.18475 l -3.26079,-4.69554 h 1.6304 v 1.17388 h 1.63039 v -2.35864 z m 6.24135,0 v 1.18476 l 3.26079,4.69554 h -1.63039 v -1.17389 h -1.6304 v 2.35864 h 4.89119 v -1.18475 l -3.26079,-4.69554 h 1.63039 v 1.17388 h 1.6304 v -2.35864 z" />
    </g>
  </g>
</svg>
